<?xml version="1.0" encoding="UTF-8"?>
<svg xmlns="http://www.w3.org/2000/svg" xmlns:xlink="http://www.w3.org/1999/xlink" width="3873" height="3873" viewBox="0 0 3873 3873">
<defs>
<clipPath id="clip-0">
<path clip-rule="evenodd" d="M 1936.5 0 C 3006 0 3873 867 3873 1936.5 C 3873 3006 3006 3873 1936.5 3873 C 867 3873 0 3006 0 1936.5 C 0 867 867 0 1936.5 0 "/>
</clipPath>
<radialGradient id="radial-pattern-0" gradientUnits="userSpaceOnUse" cx="0" cy="0" fx="0" fy="0" r="1549.19" gradientTransform="matrix(1, 0, 0, 1, 1936.5, 1936.5)">
<stop offset="0" stop-color="rgb(33.201599%, 33.201599%, 33.201599%)" stop-opacity="1"/>
<stop offset="0.0078125" stop-color="rgb(32.876587%, 32.876587%, 32.876587%)" stop-opacity="1"/>
<stop offset="0.0195312" stop-color="rgb(32.485962%, 32.485962%, 32.485962%)" stop-opacity="1"/>
<stop offset="0.03125" stop-color="rgb(32.095337%, 32.095337%, 32.095337%)" stop-opacity="1"/>
<stop offset="0.0429688" stop-color="rgb(31.704712%, 31.704712%, 31.704712%)" stop-opacity="1"/>
<stop offset="0.0546875" stop-color="rgb(31.314087%, 31.314087%, 31.314087%)" stop-opacity="1"/>
<stop offset="0.0664062" stop-color="rgb(30.923462%, 30.923462%, 30.923462%)" stop-opacity="1"/>
<stop offset="0.078125" stop-color="rgb(30.532837%, 30.532837%, 30.532837%)" stop-opacity="1"/>
<stop offset="0.0898438" stop-color="rgb(30.142212%, 30.142212%, 30.142212%)" stop-opacity="1"/>
<stop offset="0.101562" stop-color="rgb(29.751587%, 29.751587%, 29.751587%)" stop-opacity="1"/>
<stop offset="0.113281" stop-color="rgb(29.360962%, 29.360962%, 29.360962%)" stop-opacity="1"/>
<stop offset="0.125" stop-color="rgb(28.970337%, 28.970337%, 28.970337%)" stop-opacity="1"/>
<stop offset="0.136719" stop-color="rgb(28.579712%, 28.579712%, 28.579712%)" stop-opacity="1"/>
<stop offset="0.148438" stop-color="rgb(28.189087%, 28.189087%, 28.189087%)" stop-opacity="1"/>
<stop offset="0.160156" stop-color="rgb(27.798462%, 27.798462%, 27.798462%)" stop-opacity="1"/>
<stop offset="0.171875" stop-color="rgb(27.407837%, 27.407837%, 27.407837%)" stop-opacity="1"/>
<stop offset="0.183594" stop-color="rgb(27.017212%, 27.017212%, 27.017212%)" stop-opacity="1"/>
<stop offset="0.195312" stop-color="rgb(26.626587%, 26.626587%, 26.626587%)" stop-opacity="1"/>
<stop offset="0.207031" stop-color="rgb(26.235962%, 26.235962%, 26.235962%)" stop-opacity="1"/>
<stop offset="0.21875" stop-color="rgb(25.845337%, 25.845337%, 25.845337%)" stop-opacity="1"/>
<stop offset="0.230469" stop-color="rgb(25.454712%, 25.454712%, 25.454712%)" stop-opacity="1"/>
<stop offset="0.242188" stop-color="rgb(25.064087%, 25.064087%, 25.064087%)" stop-opacity="1"/>
<stop offset="0.253906" stop-color="rgb(24.737549%, 24.737549%, 24.737549%)" stop-opacity="1"/>
<stop offset="0.261719" stop-color="rgb(24.478149%, 24.478149%, 24.478149%)" stop-opacity="1"/>
<stop offset="0.269531" stop-color="rgb(24.217224%, 24.217224%, 24.217224%)" stop-opacity="1"/>
<stop offset="0.277344" stop-color="rgb(23.956299%, 23.956299%, 23.956299%)" stop-opacity="1"/>
<stop offset="0.285156" stop-color="rgb(23.696899%, 23.696899%, 23.696899%)" stop-opacity="1"/>
<stop offset="0.292969" stop-color="rgb(23.435974%, 23.435974%, 23.435974%)" stop-opacity="1"/>
<stop offset="0.300781" stop-color="rgb(23.175049%, 23.175049%, 23.175049%)" stop-opacity="1"/>
<stop offset="0.308594" stop-color="rgb(22.915649%, 22.915649%, 22.915649%)" stop-opacity="1"/>
<stop offset="0.316406" stop-color="rgb(22.654724%, 22.654724%, 22.654724%)" stop-opacity="1"/>
<stop offset="0.324219" stop-color="rgb(22.393799%, 22.393799%, 22.393799%)" stop-opacity="1"/>
<stop offset="0.332031" stop-color="rgb(22.134399%, 22.134399%, 22.134399%)" stop-opacity="1"/>
<stop offset="0.339844" stop-color="rgb(21.873474%, 21.873474%, 21.873474%)" stop-opacity="1"/>
<stop offset="0.347656" stop-color="rgb(21.612549%, 21.612549%, 21.612549%)" stop-opacity="1"/>
<stop offset="0.355469" stop-color="rgb(21.353149%, 21.353149%, 21.353149%)" stop-opacity="1"/>
<stop offset="0.363281" stop-color="rgb(21.092224%, 21.092224%, 21.092224%)" stop-opacity="1"/>
<stop offset="0.371094" stop-color="rgb(20.831299%, 20.831299%, 20.831299%)" stop-opacity="1"/>
<stop offset="0.378906" stop-color="rgb(20.571899%, 20.571899%, 20.571899%)" stop-opacity="1"/>
<stop offset="0.386719" stop-color="rgb(20.310974%, 20.310974%, 20.310974%)" stop-opacity="1"/>
<stop offset="0.394531" stop-color="rgb(20.050049%, 20.050049%, 20.050049%)" stop-opacity="1"/>
<stop offset="0.402344" stop-color="rgb(19.790649%, 19.790649%, 19.790649%)" stop-opacity="1"/>
<stop offset="0.410156" stop-color="rgb(19.529724%, 19.529724%, 19.529724%)" stop-opacity="1"/>
<stop offset="0.417969" stop-color="rgb(19.268799%, 19.268799%, 19.268799%)" stop-opacity="1"/>
<stop offset="0.425781" stop-color="rgb(19.009399%, 19.009399%, 19.009399%)" stop-opacity="1"/>
<stop offset="0.433594" stop-color="rgb(18.748474%, 18.748474%, 18.748474%)" stop-opacity="1"/>
<stop offset="0.441406" stop-color="rgb(18.487549%, 18.487549%, 18.487549%)" stop-opacity="1"/>
<stop offset="0.449219" stop-color="rgb(18.228149%, 18.228149%, 18.228149%)" stop-opacity="1"/>
<stop offset="0.457031" stop-color="rgb(17.967224%, 17.967224%, 17.967224%)" stop-opacity="1"/>
<stop offset="0.464844" stop-color="rgb(17.706299%, 17.706299%, 17.706299%)" stop-opacity="1"/>
<stop offset="0.472656" stop-color="rgb(17.446899%, 17.446899%, 17.446899%)" stop-opacity="1"/>
<stop offset="0.480469" stop-color="rgb(17.185974%, 17.185974%, 17.185974%)" stop-opacity="1"/>
<stop offset="0.488281" stop-color="rgb(16.925049%, 16.925049%, 16.925049%)" stop-opacity="1"/>
<stop offset="0.496094" stop-color="rgb(16.665649%, 16.665649%, 16.665649%)" stop-opacity="1"/>
<stop offset="0.503906" stop-color="rgb(16.340637%, 16.340637%, 16.340637%)" stop-opacity="1"/>
<stop offset="0.515625" stop-color="rgb(15.950012%, 15.950012%, 15.950012%)" stop-opacity="1"/>
<stop offset="0.527344" stop-color="rgb(15.559387%, 15.559387%, 15.559387%)" stop-opacity="1"/>
<stop offset="0.539062" stop-color="rgb(15.168762%, 15.168762%, 15.168762%)" stop-opacity="1"/>
<stop offset="0.550781" stop-color="rgb(14.778137%, 14.778137%, 14.778137%)" stop-opacity="1"/>
<stop offset="0.5625" stop-color="rgb(14.387512%, 14.387512%, 14.387512%)" stop-opacity="1"/>
<stop offset="0.574219" stop-color="rgb(13.996887%, 13.996887%, 13.996887%)" stop-opacity="1"/>
<stop offset="0.585938" stop-color="rgb(13.606262%, 13.606262%, 13.606262%)" stop-opacity="1"/>
<stop offset="0.597656" stop-color="rgb(13.215637%, 13.215637%, 13.215637%)" stop-opacity="1"/>
<stop offset="0.609375" stop-color="rgb(12.825012%, 12.825012%, 12.825012%)" stop-opacity="1"/>
<stop offset="0.621094" stop-color="rgb(12.434387%, 12.434387%, 12.434387%)" stop-opacity="1"/>
<stop offset="0.632812" stop-color="rgb(12.107849%, 12.107849%, 12.107849%)" stop-opacity="1"/>
<stop offset="0.640625" stop-color="rgb(11.846924%, 11.846924%, 11.846924%)" stop-opacity="1"/>
<stop offset="0.648438" stop-color="rgb(11.587524%, 11.587524%, 11.587524%)" stop-opacity="1"/>
<stop offset="0.65625" stop-color="rgb(11.326599%, 11.326599%, 11.326599%)" stop-opacity="1"/>
<stop offset="0.664062" stop-color="rgb(11.065674%, 11.065674%, 11.065674%)" stop-opacity="1"/>
<stop offset="0.671875" stop-color="rgb(10.806274%, 10.806274%, 10.806274%)" stop-opacity="1"/>
<stop offset="0.679688" stop-color="rgb(10.545349%, 10.545349%, 10.545349%)" stop-opacity="1"/>
<stop offset="0.6875" stop-color="rgb(10.284424%, 10.284424%, 10.284424%)" stop-opacity="1"/>
<stop offset="0.695312" stop-color="rgb(10.025024%, 10.025024%, 10.025024%)" stop-opacity="1"/>
<stop offset="0.703125" stop-color="rgb(9.764099%, 9.764099%, 9.764099%)" stop-opacity="1"/>
<stop offset="0.710938" stop-color="rgb(9.503174%, 9.503174%, 9.503174%)" stop-opacity="1"/>
<stop offset="0.71875" stop-color="rgb(9.243774%, 9.243774%, 9.243774%)" stop-opacity="1"/>
<stop offset="0.726562" stop-color="rgb(8.982849%, 8.982849%, 8.982849%)" stop-opacity="1"/>
<stop offset="0.734375" stop-color="rgb(8.721924%, 8.721924%, 8.721924%)" stop-opacity="1"/>
<stop offset="0.742188" stop-color="rgb(8.462524%, 8.462524%, 8.462524%)" stop-opacity="1"/>
<stop offset="0.75" stop-color="rgb(8.201599%, 8.201599%, 8.201599%)" stop-opacity="1"/>
<stop offset="0.757812" stop-color="rgb(7.876587%, 7.876587%, 7.876587%)" stop-opacity="1"/>
<stop offset="0.769531" stop-color="rgb(7.485962%, 7.485962%, 7.485962%)" stop-opacity="1"/>
<stop offset="0.78125" stop-color="rgb(7.095337%, 7.095337%, 7.095337%)" stop-opacity="1"/>
<stop offset="0.792969" stop-color="rgb(6.704712%, 6.704712%, 6.704712%)" stop-opacity="1"/>
<stop offset="0.804688" stop-color="rgb(6.314087%, 6.314087%, 6.314087%)" stop-opacity="1"/>
<stop offset="0.816406" stop-color="rgb(5.987549%, 5.987549%, 5.987549%)" stop-opacity="1"/>
<stop offset="0.824219" stop-color="rgb(5.728149%, 5.728149%, 5.728149%)" stop-opacity="1"/>
<stop offset="0.832031" stop-color="rgb(5.467224%, 5.467224%, 5.467224%)" stop-opacity="1"/>
<stop offset="0.839844" stop-color="rgb(5.206299%, 5.206299%, 5.206299%)" stop-opacity="1"/>
<stop offset="0.847656" stop-color="rgb(4.946899%, 4.946899%, 4.946899%)" stop-opacity="1"/>
<stop offset="0.855469" stop-color="rgb(4.685974%, 4.685974%, 4.685974%)" stop-opacity="1"/>
<stop offset="0.863281" stop-color="rgb(4.425049%, 4.425049%, 4.425049%)" stop-opacity="1"/>
<stop offset="0.871094" stop-color="rgb(4.165649%, 4.165649%, 4.165649%)" stop-opacity="1"/>
<stop offset="0.878906" stop-color="rgb(3.840637%, 3.840637%, 3.840637%)" stop-opacity="1"/>
<stop offset="0.890625" stop-color="rgb(3.450012%, 3.450012%, 3.450012%)" stop-opacity="1"/>
<stop offset="0.902344" stop-color="rgb(3.059387%, 3.059387%, 3.059387%)" stop-opacity="1"/>
<stop offset="0.914062" stop-color="rgb(2.732849%, 2.732849%, 2.732849%)" stop-opacity="1"/>
<stop offset="0.921875" stop-color="rgb(2.471924%, 2.471924%, 2.471924%)" stop-opacity="1"/>
<stop offset="0.929688" stop-color="rgb(2.212524%, 2.212524%, 2.212524%)" stop-opacity="1"/>
<stop offset="0.9375" stop-color="rgb(1.951599%, 1.951599%, 1.951599%)" stop-opacity="1"/>
<stop offset="0.945312" stop-color="rgb(1.626587%, 1.626587%, 1.626587%)" stop-opacity="1"/>
<stop offset="0.957031" stop-color="rgb(1.300049%, 1.300049%, 1.300049%)" stop-opacity="1"/>
<stop offset="0.964844" stop-color="rgb(1.040649%, 1.040649%, 1.040649%)" stop-opacity="1"/>
<stop offset="0.972656" stop-color="rgb(0.715637%, 0.715637%, 0.715637%)" stop-opacity="1"/>
<stop offset="0.984375" stop-color="rgb(0.389099%, 0.389099%, 0.389099%)" stop-opacity="1"/>
<stop offset="0.992188" stop-color="rgb(0.1297%, 0.1297%, 0.1297%)" stop-opacity="1"/>
<stop offset="1" stop-color="rgb(0%, 0%, 0%)" stop-opacity="1"/>
</radialGradient>
</defs>
<g clip-path="url(#clip-0)">
<rect x="-387.3" y="-387.3" width="4647.6" height="4647.6" fill="url(#radial-pattern-0)"/>
</g>
<path fill-rule="evenodd" fill="rgb(100%, 100%, 99.609375%)" fill-opacity="1" d="M 1936.699219 2291.601562 C 1989.699219 2291.601562 2035.5 2315.800781 2065.101562 2360 C 2126.398438 2450.898438 2228.601562 2505.101562 2337.800781 2505.101562 C 2519.199219 2505.101562 2666.398438 2357.5 2666.398438 2176.5 C 2666.398438 1995.5 2518.800781 1847.898438 2337.800781 1847.898438 L 1535.101562 1847.898438 C 1353.699219 1847.898438 1206.5 1995.5 1206.5 2176.5 C 1206.5 2357.5 1354.101562 2505.101562 1535.101562 2505.101562 C 1644.800781 2505.101562 1746.5 2450.898438 1807.800781 2360 C 1837.898438 2315.800781 1883.300781 2291.601562 1936.699219 2291.601562 Z M 2337.800781 2565.101562 C 2208.5 2565.101562 2087.601562 2500.898438 2015.101562 2393.300781 C 1996.800781 2365.800781 1969.199219 2351.601562 1936.300781 2351.601562 C 1903.398438 2351.601562 1876.300781 2366.199219 1857.5 2393.300781 C 1784.898438 2500.898438 1664.398438 2565.101562 1534.800781 2565.101562 C 1320.5 2565.101562 1146.199219 2390.800781 1146.199219 2176.5 C 1146.199219 1962.199219 1320.5 1787.898438 1534.800781 1787.898438 L 2337.5 1787.898438 C 2551.800781 1787.898438 2726.101562 1962.199219 2726.101562 2176.5 C 2726 2390.800781 2552.199219 2565.101562 2337.800781 2565.101562 Z M 2274 2191.5 C 2263.199219 2191.5 2253.601562 2185.699219 2248.101562 2176.5 L 2135.5 1983.398438 C 2127.199219 1969.199219 2132.199219 1950.898438 2146.300781 1942.5 C 2160.5 1934.199219 2178.800781 1939.199219 2187.199219 1953.300781 L 2273.898438 2101.699219 L 2359.101562 1955.898438 C 2363.800781 1945.398438 2374.199219 1938.199219 2386.5 1938.199219 L 2441.101562 1938.199219 C 2487.800781 1938.199219 2525.699219 1976.101562 2525.699219 2022.800781 C 2525.398438 2052.199219 2510.300781 2078.101562 2487.699219 2093.199219 L 2521.101562 2144.5 C 2530.300781 2158.300781 2526.101562 2177 2512.300781 2186.199219 C 2506.898438 2189.5 2501 2191.199219 2495.601562 2191.199219 C 2485.601562 2191.199219 2476 2186.199219 2470.601562 2177.398438 L 2418 2096.699219 C 2413.601562 2091.5 2410.898438 2084.699219 2410.898438 2077.300781 C 2410.898438 2069.101562 2414.101562 2061.699219 2419.398438 2056.300781 L 2419.601562 2056.101562 C 2421.101562 2054.601562 2422.800781 2053.199219 2424.601562 2051.898438 C 2430.398438 2048 2437.199219 2046.5 2443.699219 2047.101562 C 2455.800781 2045.699219 2465.5 2035.398438 2465.5 2022.699219 C 2465.5 2009.398438 2454.699219 1998.101562 2440.898438 1998.101562 L 2403.398438 1998.101562 L 2299.601562 2176.101562 C 2294.5 2186.101562 2284.5 2191.5 2274 2191.5 Z M 1824.101562 2095.199219 L 1377.5 2095.199219 C 1360.800781 2095.199219 1347.5 2081.898438 1347.5 2065.199219 C 1347.5 2048.5 1360.800781 2035.199219 1377.5 2035.199219 L 1824.101562 2035.199219 C 1840.800781 2035.199219 1854.101562 2048.5 1854.101562 2065.199219 C 1854.101562 2081.800781 1840.398438 2095.199219 1824.101562 2095.199219 Z M 2337.800781 2690.199219 C 2181 2690.199219 2033.800781 2618.898438 1936.699219 2497.101562 C 1839.5 2618.398438 1692.300781 2690.199219 1535.601562 2690.199219 C 1252.5 2690.199219 1021.898438 2459.601562 1021.898438 2176.5 C 1021.898438 1893.398438 1252.5 1662.800781 1535.601562 1662.800781 L 2337.898438 1662.800781 C 2621 1662.800781 2851.601562 1893.398438 2851.601562 2176.5 C 2851.601562 2459.601562 2621 2690.199219 2337.800781 2690.199219 "/>
<path fill-rule="evenodd" fill="rgb(100%, 100%, 99.609375%)" fill-opacity="1" d="M 2155.199219 1361.300781 C 2166.800781 1361.300781 2178.199219 1356.601562 2186.398438 1348.398438 C 2203.5 1331.300781 2203.601562 1303.199219 2186.398438 1286 C 2119.699219 1219.5 2031 1182.699219 1936.699219 1182.699219 C 1842.398438 1182.699219 1753.800781 1219.300781 1687 1286 C 1669.898438 1303.101562 1669.898438 1331.199219 1687 1348.300781 C 1704.101562 1365.398438 1732.199219 1365.398438 1749.300781 1348.300781 C 1799.300781 1298.300781 1865.898438 1270.699219 1936.601562 1270.699219 C 2007.398438 1270.699219 2073.898438 1298.300781 2123.898438 1348.300781 C 2132.199219 1356.699219 2143.601562 1361.300781 2155.199219 1361.300781 "/>
<path fill-rule="evenodd" fill="rgb(100%, 100%, 99.609375%)" fill-opacity="1" d="M 1852 1474.601562 C 1874.800781 1451.800781 1905 1439.5 1937.199219 1439.5 C 1969.398438 1439.5 1999.601562 1451.800781 2022.398438 1474.601562 C 2030.601562 1482.800781 2042 1487.5 2053.601562 1487.5 C 2065.101562 1487.5 2076.5 1482.699219 2084.300781 1474.300781 C 2100.5 1456.800781 2101 1429.398438 2083.898438 1412.300781 C 2044.601562 1373 1992.300781 1351.5 1936.800781 1351.5 C 1881.300781 1351.5 1829 1373.101562 1789.699219 1412.300781 C 1772.601562 1429.398438 1772.601562 1457.5 1789.699219 1474.601562 C 1806.800781 1491.800781 1834.898438 1491.800781 1852 1474.601562 "/>
<path fill-rule="evenodd" fill="rgb(100%, 100%, 99.609375%)" fill-opacity="1" d="M 1662.199219 1602.699219 C 1673.800781 1564.601562 1709.300781 1536.800781 1751.199219 1536.800781 L 2121.898438 1536.800781 C 2163.800781 1536.800781 2199.199219 1564.601562 2210.898438 1602.699219 L 1662.199219 1602.699219 "/>
<path fill-rule="evenodd" fill="rgb(100%, 100%, 99.609375%)" fill-opacity="1" d="M 975.398438 2300.699219 C 939.101562 2292.300781 911.800781 2259.699219 911.800781 2220.699219 L 911.800781 2131.898438 C 911.800781 2093.101562 939 2060.300781 975.5 2051.800781 C 966.601562 2092 961.800781 2133.699219 961.800781 2176.5 C 961.800781 2219.199219 966.5 2260.699219 975.398438 2300.699219 "/>
<path fill-rule="evenodd" fill="rgb(100%, 100%, 99.609375%)" fill-opacity="1" d="M 2898 2052.398438 C 2934 2061 2961.199219 2093.398438 2961.199219 2132.300781 L 2961.199219 2221.101562 C 2961.199219 2259.699219 2934.300781 2292.101562 2898 2300.601562 C 2906.898438 2260.601562 2911.601562 2219.101562 2911.601562 2176.398438 C 2911.601562 2133.898438 2906.898438 2092.398438 2898 2052.398438 "/>
</svg>
